<svg width="54" height="43" viewBox="0 0 54 43" fill="none" xmlns="http://www.w3.org/2000/svg">
<path d="M45.5331 3.67997C45.5175 3.64904 45.4917 3.62521 45.4606 3.61298C42.0081 1.93991 38.3648 0.74644 34.6218 0.0623929C34.5882 0.0558843 34.5535 0.0606976 34.5226 0.076153C34.4917 0.0916085 34.4662 0.116925 34.4496 0.148526C33.9532 1.10009 33.5025 2.07751 33.0993 3.07704C29.0624 2.42997 24.9562 2.42997 20.9193 3.07704C20.5145 2.07504 20.0577 1.09738 19.5509 0.148526C19.5334 0.117867 19.5077 0.0933394 19.4771 0.0780175C19.4465 0.0626956 19.4122 0.0572603 19.3787 0.0623929C15.6292 0.743359 11.9795 1.93692 8.52181 3.61298C8.49148 3.62655 8.46608 3.65003 8.44931 3.67997C1.54369 14.5806 -0.350377 25.2036 0.573998 35.7022C0.576616 35.7287 0.584414 35.7542 0.596896 35.7773C0.609378 35.8004 0.62627 35.8204 0.646498 35.8362C4.66902 38.9782 9.16754 41.3762 13.9503 42.9278C13.9846 42.939 14.0215 42.9386 14.0556 42.9266C14.0897 42.9146 14.1194 42.8916 14.1406 42.8608C15.1667 41.3856 16.0761 39.8235 16.8593 38.1905C16.8697 38.168 16.8757 38.1435 16.8767 38.1185C16.8778 38.0935 16.8739 38.0686 16.8654 38.0452C16.8569 38.0219 16.8439 38.0006 16.8273 37.9828C16.8106 37.965 16.7907 37.951 16.7687 37.9417C15.3318 37.3603 13.9409 36.6594 12.609 35.8458C12.5855 35.8306 12.5657 35.8096 12.5515 35.7847C12.5372 35.7597 12.5288 35.7315 12.5271 35.7024C12.5253 35.6733 12.5302 35.6442 12.5413 35.6175C12.5524 35.5909 12.5694 35.5674 12.5909 35.5491C12.8718 35.329 13.1528 35.0993 13.4156 34.8696C13.4388 34.8481 13.4672 34.834 13.4977 34.8289C13.5282 34.8239 13.5594 34.828 13.5878 34.8409C22.3059 39.0423 31.749 39.0423 40.3674 34.8409C40.395 34.8267 40.4257 34.821 40.4561 34.8244C40.4866 34.8277 40.5155 34.8401 40.5396 34.86C40.8024 35.0897 41.0834 35.329 41.3643 35.5491C41.3858 35.5674 41.4028 35.5909 41.4139 35.6175C41.425 35.6442 41.4299 35.6733 41.4281 35.7024C41.4263 35.7315 41.418 35.7597 41.4037 35.7847C41.3895 35.8096 41.3697 35.8306 41.3462 35.8458C40.0177 36.6636 38.6262 37.3616 37.1865 37.9321C37.1645 37.9414 37.1446 37.9554 37.1279 37.9732C37.1113 37.991 37.0983 38.0123 37.0898 38.0356C37.0813 38.059 37.0774 38.084 37.0785 38.109C37.0795 38.134 37.0854 38.1585 37.0959 38.1809C37.8928 39.8058 38.8015 41.3668 39.8146 42.8513C39.8357 42.882 39.8655 42.905 39.8996 42.917C39.9337 42.9291 39.9706 42.9295 40.0049 42.9182C44.8015 41.3736 49.313 38.9752 53.3449 35.8266C53.3656 35.8113 53.3828 35.7913 53.3953 35.7682C53.4078 35.745 53.4154 35.7192 53.4174 35.6927C54.5231 23.5671 51.5506 13.0302 45.5331 3.67997ZM18.1643 29.3093C15.5362 29.3093 13.3793 26.7636 13.3793 23.6436C13.3793 20.5237 15.4999 17.9684 18.1643 17.9684C20.8559 17.9684 22.9946 20.5333 22.9493 23.6341C22.9493 26.7636 20.8287 29.3093 18.1643 29.3093ZM35.8724 29.3093C33.2443 29.3093 31.0874 26.7636 31.0874 23.6436C31.0874 20.5237 33.199 17.9684 35.8724 17.9684C38.564 17.9684 40.7028 20.5333 40.6574 23.6341C40.6574 26.7636 38.5549 29.3093 35.8724 29.3093Z" fill="white"/>
</svg>
