<svg width="431" height="53" viewBox="0 0 431 53" fill="none" xmlns="http://www.w3.org/2000/svg">
<path d="M14.1699 0.679688C14.5031 0.679688 14.8229 0.81331 15.0576 1.0498L23.79 9.84961H26.1504V1.92969C26.1506 1.23947 26.7101 0.679688 27.4004 0.679688H37.9697C38.3037 0.679688 38.6246 0.813264 38.8594 1.05078L44.9492 7.21094C45.1805 7.44489 45.3095 7.76086 45.3096 8.08984V37.9805C45.3093 38.6706 44.7498 39.2305 44.0596 39.2305H39.9297C39.5983 39.2304 39.2802 39.0986 39.0459 38.8643L32.3604 32.1787V37.2803C32.3603 37.6836 32.1677 38.041 31.8711 38.2695H35.5195C35.8511 38.2695 36.1699 38.4013 36.4043 38.6357L44.9443 47.1758C45.1786 47.4101 45.3095 47.7282 45.3096 48.0596V51C45.3096 51.6904 44.7499 52.25 44.0596 52.25H31.3896C30.6995 52.2498 30.1396 51.6902 30.1396 51V39.5195C30.1398 39.1162 30.3323 38.7587 30.6289 38.5303H23.5498C23.2184 38.5302 22.9004 38.3984 22.666 38.1641L17.4863 32.9834C17.252 32.749 17.1201 32.4311 17.1201 32.0996V30.7275L15.4199 29.0273V51C15.4199 51.6904 14.8603 52.25 14.1699 52.25H7.58984C7.25838 52.25 6.94044 52.1182 6.70605 51.8838L0.616211 45.7939C0.381827 45.5596 0.250041 45.2416 0.25 44.9102V1.92969C0.250168 1.23947 0.809747 0.679688 1.5 0.679688H14.1699ZM54.4131 17.4863C54.6979 17.5144 54.966 17.6394 55.1709 17.8428L65.8818 28.4834C66.1178 28.718 66.25 29.0373 66.25 29.3701V51C66.25 51.6904 65.6904 52.25 65 52.25H56.6699C56.3361 52.2499 56.016 52.1163 55.7812 51.8789L49.7617 45.7891C49.5305 45.5551 49.4004 45.2391 49.4004 44.9102V18.7305C49.4004 18.0401 49.96 17.4805 50.6504 17.4805H54.29L54.4131 17.4863ZM82.8818 0.755859C83.1681 0.784223 83.4374 0.911033 83.6426 1.11621L86.0928 3.56641C86.327 3.80079 86.459 4.11883 86.459 4.4502V37.252L96.5928 47.3857C96.8271 47.6201 96.9589 47.9382 96.959 48.2695V51C96.959 51.6902 96.3991 52.2497 95.709 52.25H71.9785C71.2882 52.25 70.7285 51.6904 70.7285 51V2C70.7285 1.30964 71.2882 0.75 71.9785 0.75H82.7588L82.8818 0.755859ZM108.448 36.5195C108.782 36.5195 109.103 36.654 109.338 36.8916L115.357 42.9814C115.589 43.2154 115.719 43.5314 115.719 43.8604V51C115.719 51.6903 115.159 52.2499 114.469 52.25H104.389C104.056 52.25 103.736 52.1173 103.501 51.8809L94.4717 42.7803C94.2394 42.5462 94.1085 42.2301 94.1084 41.9004V37.7695C94.1087 37.0794 94.6683 36.5196 95.3584 36.5195H108.448ZM132.374 0.755859C132.66 0.784223 132.93 0.911033 133.135 1.11621L135.585 3.56641C135.819 3.80079 135.951 4.11883 135.951 4.4502V37.252L146.085 47.3857C146.319 47.6201 146.451 47.9382 146.451 48.2695V51C146.451 51.6902 145.891 52.2497 145.201 52.25H121.471C120.78 52.25 120.221 51.6904 120.221 51V2C120.221 1.30964 120.78 0.75 121.471 0.75H132.251L132.374 0.755859ZM157.94 36.5195C158.274 36.5195 158.595 36.654 158.83 36.8916L164.85 42.9814C165.081 43.2154 165.211 43.5314 165.211 43.8604V51C165.211 51.6903 164.651 52.2499 163.961 52.25H153.881C153.548 52.25 153.228 52.1173 152.993 51.8809L143.964 42.7803C143.732 42.5462 143.601 42.2301 143.601 41.9004V37.7695C143.601 37.0794 144.16 36.5196 144.851 36.5195H157.94ZM167.955 6.79492C168.422 6.60145 168.96 6.70891 169.317 7.06641L181.987 19.7363C182.222 19.9707 182.354 20.2886 182.354 20.6201V35.2227L184.211 37.0801H204.903L205.028 37.0859C205.316 37.1148 205.588 37.2434 205.793 37.4512L211.812 43.541C212.044 43.775 212.174 44.0909 212.174 44.4199V51C212.174 51.6903 211.614 52.2499 210.924 52.25H174.523C174.192 52.25 173.874 52.1182 173.64 51.8838L167.55 45.7939C167.315 45.5596 167.184 45.2416 167.184 44.9102V7.9502C167.184 7.44464 167.488 6.98841 167.955 6.79492ZM253.629 0.755859C253.915 0.784245 254.184 0.91106 254.39 1.11621L260.479 7.20605C260.714 7.44044 260.846 7.7584 260.846 8.08984V30.5596C260.846 31.065 260.541 31.5213 260.074 31.7148C259.607 31.9082 259.069 31.8015 258.712 31.4443L243.958 16.6904H230.273L230.659 17.0762C230.894 17.3106 231.025 17.6285 231.025 17.96V51C231.025 51.6904 230.466 52.25 229.775 52.25H223.195C222.864 52.25 222.546 52.1182 222.312 51.8838L216.222 45.7939C215.987 45.5596 215.856 45.2416 215.855 44.9102V2C215.855 1.30964 216.415 0.75 217.105 0.75H253.506L253.629 0.755859ZM251.125 26.7197C251.458 26.7197 251.778 26.8533 252.013 27.0898L260.483 35.6299C260.715 35.8639 260.846 36.1802 260.846 36.5098V51C260.846 51.6903 260.286 52.2499 259.596 52.25H253.016C252.684 52.25 252.366 52.1182 252.132 51.8838L246.042 45.7939C245.808 45.5596 245.676 45.2416 245.676 44.9102V27.9697C245.676 27.2795 246.236 26.7197 246.926 26.7197H251.125ZM303.121 0.755859C303.407 0.784245 303.677 0.91106 303.882 1.11621L309.972 7.20605C310.206 7.44044 310.338 7.7584 310.338 8.08984V30.5596C310.338 31.065 310.033 31.5213 309.566 31.7148C309.099 31.9082 308.562 31.8015 308.204 31.4443L293.45 16.6904H279.766L280.151 17.0762C280.386 17.3106 280.518 17.6285 280.518 17.96V51C280.518 51.6904 279.958 52.25 279.268 52.25H272.688C272.356 52.25 272.038 52.1182 271.804 51.8838L265.714 45.7939C265.479 45.5596 265.348 45.2416 265.348 44.9102V2C265.348 1.30964 265.907 0.75 266.598 0.75H302.998L303.121 0.755859ZM300.617 26.7197C300.95 26.7197 301.27 26.8533 301.505 27.0898L309.976 35.6299C310.208 35.8639 310.338 36.1802 310.338 36.5098V51C310.338 51.6903 309.778 52.2499 309.088 52.25H302.508C302.176 52.25 301.858 52.1182 301.624 51.8838L295.534 45.7939C295.3 45.5596 295.168 45.2416 295.168 44.9102V27.9697C295.168 27.2795 295.728 26.7197 296.418 26.7197H300.617ZM319.511 17.4863C319.796 17.5144 320.064 17.6394 320.269 17.8428L330.979 28.4834C331.215 28.718 331.348 29.0373 331.348 29.3701V51C331.348 51.6904 330.788 52.25 330.098 52.25H321.768C321.434 52.2499 321.114 52.1163 320.879 51.8789L314.859 45.7891C314.628 45.5551 314.498 45.2391 314.498 44.9102V18.7305C314.498 18.0401 315.058 17.4805 315.748 17.4805H319.388L319.511 17.4863ZM344.994 0.679688C345.326 0.679688 345.644 0.811648 345.878 1.0459L351.968 7.13574C352.201 7.36933 352.333 7.68626 352.334 8.0166L352.402 33.4707L354.262 35.3301H363.694V16.5596C363.695 15.8694 364.254 15.3096 364.944 15.3096H369.145L369.268 15.3164C369.554 15.3448 369.823 15.4707 370.028 15.6758L380.179 25.8262C380.413 26.0606 380.544 26.3786 380.544 26.71V51C380.544 51.6904 379.984 52.25 379.294 52.25H349.965C349.633 52.25 349.314 52.1182 349.08 51.8838L335.851 38.6543C335.616 38.4199 335.484 38.1011 335.484 37.7695V1.92969C335.485 1.23947 336.044 0.679688 336.734 0.679688H344.994ZM398.965 0.679688C399.298 0.679688 399.618 0.81331 399.853 1.0498L408.585 9.84961H410.945V1.92969C410.945 1.23947 411.505 0.679688 412.195 0.679688H422.765C423.099 0.679688 423.419 0.813264 423.654 1.05078L429.744 7.21094C429.975 7.44489 430.104 7.76086 430.104 8.08984V37.9805C430.104 38.6706 429.545 39.2305 428.854 39.2305H424.725C424.393 39.2304 424.075 39.0986 423.841 38.8643L417.155 32.1787V37.2803C417.155 37.6836 416.963 38.041 416.666 38.2695H420.314C420.646 38.2695 420.965 38.4013 421.199 38.6357L429.739 47.1758C429.974 47.4101 430.104 47.7282 430.104 48.0596V51C430.104 51.6904 429.545 52.25 428.854 52.25H416.185C415.494 52.2498 414.935 51.6902 414.935 51V39.5195C414.935 39.1162 415.127 38.7587 415.424 38.5303H408.345C408.013 38.5302 407.695 38.3984 407.461 38.1641L402.281 32.9834C402.047 32.749 401.915 32.4311 401.915 32.0996V30.7275L400.215 29.0273V51C400.215 51.6904 399.655 52.25 398.965 52.25H392.385C392.053 52.25 391.735 52.1182 391.501 51.8838L385.411 45.7939C385.177 45.5596 385.045 45.2416 385.045 44.9102V1.92969C385.045 1.23947 385.605 0.679688 386.295 0.679688H398.965ZM2.75 44.3926L8.10742 49.75H12.9199V26.0098C12.92 25.5044 13.2246 25.049 13.6914 24.8555C14.1584 24.662 14.6962 24.7686 15.0537 25.126L19.2539 29.3262C19.4883 29.5606 19.6201 29.8785 19.6201 30.21V31.582L24.0674 36.0303H29.8604V29.4404C29.8604 28.7501 30.42 28.1904 31.1104 28.1904H31.3896L31.5137 28.1963C31.7996 28.2247 32.0684 28.3508 32.2734 28.5557L40.4482 36.7305H42.8096V8.60254L37.4482 3.17969H28.6504V11.0996C28.6504 11.7898 28.0906 12.3494 27.4004 12.3496H23.2695C22.9365 12.3495 22.6174 12.2168 22.3828 11.9805L13.6494 3.17969H2.75V44.3926ZM32.6396 49.75H42.8096V48.5781L35.001 40.7695H32.6396V49.75ZM51.9004 44.3965L57.1924 49.75H63.75V29.8896L53.7744 19.9805H51.9004V44.3965ZM73.2285 49.75H94.459V48.7891L84.3242 38.6543C84.0898 38.4199 83.959 38.1011 83.959 37.7695V4.96777L82.2412 3.25H73.2285V49.75ZM96.6084 41.3838L104.909 49.75H113.219V44.373L107.927 39.0195H96.6084V41.3838ZM122.721 49.75H143.951V48.7891L133.816 38.6543C133.582 38.4199 133.451 38.1011 133.451 37.7695V4.96777L131.733 3.25H122.721V49.75ZM146.101 41.3838L154.401 49.75H162.711V44.373L157.419 39.0195H146.101V41.3838ZM169.684 44.3926L175.041 49.75H209.674V44.9336L204.382 39.5801H183.693C183.362 39.58 183.044 39.4482 182.81 39.2139L180.22 36.624C179.985 36.3897 179.854 36.0717 179.854 35.7402V21.1377L169.684 10.9678V44.3926ZM218.355 44.3926L223.713 49.75H228.525V18.4775L226.372 16.3242C226.015 15.9668 225.907 15.429 226.101 14.9619C226.294 14.4948 226.75 14.1904 227.256 14.1904H244.476L244.599 14.1963C244.885 14.2246 245.154 14.3506 245.359 14.5557L258.346 27.542V8.60742L252.988 3.25H218.355V44.3926ZM248.176 44.3926L253.533 49.75H258.346V37.0244L250.604 29.2197H248.176V44.3926ZM267.848 44.3926L273.205 49.75H278.018V18.4775L275.864 16.3242C275.507 15.9668 275.399 15.429 275.593 14.9619C275.786 14.4948 276.242 14.1904 276.748 14.1904H293.968L294.091 14.1963C294.377 14.2246 294.646 14.3506 294.852 14.5557L307.838 27.542V8.60742L302.48 3.25H267.848V44.3926ZM297.668 44.3926L303.025 49.75H307.838V37.0244L300.097 29.2197H297.668V44.3926ZM316.998 44.3965L322.29 49.75H328.848V29.8896L318.872 19.9805H316.998V44.3965ZM337.984 37.252L350.482 49.75H378.044V27.2275L368.626 17.8096H366.194V36.5801C366.194 37.2704 365.635 37.8301 364.944 37.8301H353.744C353.413 37.83 353.095 37.6982 352.86 37.4639L350.271 34.874C350.037 34.6404 349.905 34.3235 349.904 33.9932L349.835 8.53906L344.477 3.17969H337.984V37.252ZM387.545 44.3926L392.902 49.75H397.715V26.0098C397.715 25.5044 398.019 25.049 398.486 24.8555C398.953 24.662 399.491 24.7686 399.849 25.126L404.049 29.3262C404.283 29.5606 404.415 29.8785 404.415 30.21V31.582L408.862 36.0303H414.655V29.4404C414.655 28.7501 415.215 28.1904 415.905 28.1904H416.185L416.309 28.1963C416.594 28.2247 416.863 28.3508 417.068 28.5557L425.243 36.7305H427.604V8.60254L422.243 3.17969H413.445V11.0996C413.445 11.7898 412.885 12.3494 412.195 12.3496H408.064C407.731 12.3495 407.412 12.2168 407.178 11.9805L398.444 3.17969H387.545V44.3926ZM417.435 49.75H427.604V48.5781L419.796 40.7695H417.435V49.75ZM196.434 19.2998C196.765 19.2998 197.083 19.4317 197.317 19.666L205.508 27.8564C205.742 28.0908 205.874 28.4089 205.874 28.7402V33.2197C205.874 33.9099 205.314 34.4695 204.624 34.4697H187.823C187.486 34.4696 187.163 34.3335 186.928 34.0918L184.407 31.502C184.18 31.2686 184.054 30.9554 184.054 30.6299V20.5498C184.054 19.8595 184.613 19.2998 185.304 19.2998H196.434ZM186.554 30.1221L188.351 31.9697H203.374V29.2578L195.916 21.7998H186.554V30.1221ZM59.2461 0.755859C59.5364 0.785184 59.8089 0.916301 60.0146 1.12695L65.8945 7.14648C66.1225 7.37989 66.2499 7.69327 66.25 8.01953V23.4902C66.2499 23.9957 65.9455 24.4511 65.4785 24.6445C65.0114 24.838 64.4737 24.7315 64.1162 24.374L49.7666 10.0234C49.5323 9.78903 49.4004 9.47109 49.4004 9.13965V2C49.4004 1.30964 49.96 0.75 50.6504 0.75H59.1201L59.2461 0.755859ZM324.344 0.755859C324.634 0.785184 324.907 0.916301 325.112 1.12695L330.992 7.14648C331.22 7.37989 331.348 7.69327 331.348 8.01953V23.4902C331.348 23.9957 331.043 24.4511 330.576 24.6445C330.109 24.838 329.571 24.7315 329.214 24.374L314.864 10.0234C314.63 9.78903 314.498 9.47109 314.498 9.13965V2C314.498 1.30964 315.058 0.75 315.748 0.75H324.218L324.344 0.755859ZM205.028 0.755859C205.316 0.784739 205.588 0.913287 205.793 1.12109L211.812 7.21094C212.044 7.44489 212.174 7.76088 212.174 8.08984V20.5498C212.174 21.2401 211.614 21.7997 210.924 21.7998H206.023C205.689 21.7998 205.369 21.6658 205.134 21.4277L200.462 16.6904H181.874C181.543 16.6904 181.224 16.5586 180.989 16.3242L171.609 6.94434C171.375 6.70992 171.243 6.39109 171.243 6.05957V2C171.243 1.30979 171.803 0.750232 172.493 0.75H204.903L205.028 0.755859ZM51.9004 8.62207L63.75 20.4717V8.52832L58.5947 3.25H51.9004V8.62207ZM316.998 8.62207L328.848 20.4717V8.52832L323.692 3.25H316.998V8.62207ZM173.743 5.54102L182.393 14.1904H200.983L201.108 14.1963C201.397 14.2252 201.669 14.3541 201.874 14.5625L206.546 19.2998H209.674V8.60352L204.382 3.25H173.743V5.54102ZM373.204 0.679688C373.535 0.679688 373.853 0.811661 374.088 1.0459L380.179 7.13574C380.413 7.37005 380.544 7.6882 380.544 8.01953V16.6299C380.544 17.3202 379.984 17.8799 379.294 17.8799H375.164C374.834 17.8798 374.517 17.7491 374.283 17.5166L364.063 7.36719C363.827 7.13264 363.694 6.81331 363.694 6.48047V1.92969C363.695 1.23949 364.254 0.679709 364.944 0.679688H373.204ZM366.194 5.95898L375.679 15.3799H378.044V8.53711L372.687 3.17969H366.194V5.95898Z" fill="white"/>
</svg>
