<svg width="522" height="62" viewBox="0 0 522 62" fill="none" xmlns="http://www.w3.org/2000/svg">
<mask id="path-1-outside-1_2244_469" maskUnits="userSpaceOnUse" x="0" y="0" width="522" height="62" fill="black">
<rect fill="white" width="522" height="62"/>
<path d="M37.46 47.145H42.56L52.93 57.515V61.085H37.46V47.145ZM45.45 1.5L52.93 8.895V45.275H47.83L37.46 34.905H37.12V44.425H28.025L21.735 38.05V35.84L16.635 30.74V61.085H8.645L1.25 53.605V1.5H16.55L27.685 12.55H32.615V1.5H45.45ZM60.9326 21.815H65.3526L78.3576 34.82V61H68.2426L60.9326 53.605V21.815ZM71.1326 1.58499L78.3576 8.81V27.595L60.9326 10.17V1.58499H71.1326ZM131.116 45.02L138.426 52.415V61H126.186L115.136 50.035V45.02H131.116ZM102.811 4.475V45.02L115.561 57.77V61H86.8311V1.5H99.9211L102.811 4.475ZM191.214 45.02L198.524 52.415V61H186.284L175.234 50.035V45.02H191.214ZM162.909 4.475V45.02L175.659 57.77V61H146.929V1.5H160.019L162.909 4.475ZM222.4 45.615H248.24L255.55 53.01V61H211.35L203.955 53.605V8.725L219.34 24.11V42.47L222.4 45.615ZM224.355 24.025H237.87L247.815 34.055V39.41H227.5L224.355 36.35V24.025ZM243.395 17.905H220.275L208.8 6.43V1.5H248.24L255.55 8.98V24.025H249.515L243.395 17.905ZM299.267 33.12H304.282L314.652 43.405V61H306.577L299.267 53.605V33.12ZM307.257 1.5L314.652 8.98V36.265L296.207 17.82H275.297L278.442 20.965V61H270.452L263.057 53.605V1.5H307.257ZM359.364 33.12H364.379L374.749 43.405V61H366.674L359.364 53.605V33.12ZM367.354 1.5L374.749 8.98V36.265L356.304 17.82H335.394L338.539 20.965V61H330.549L323.154 53.605V1.5H367.354ZM382.837 21.815H387.257L400.262 34.82V61H390.147L382.837 53.605V21.815ZM393.037 1.58499L400.262 8.81V27.595L382.837 10.17V1.58499H393.037ZM452.52 1.5L460 8.895V19.35H454.9L442.49 6.94V1.5H452.52ZM442.49 19.18H447.59L460 31.59V61H424.385L408.32 44.935V1.5H418.35L425.745 8.895L425.83 40.345L428.89 43.49H442.49V19.18ZM504.711 47.145H509.811L520.181 57.515V61.085H504.711V47.145ZM512.701 1.5L520.181 8.895V45.275H515.081L504.711 34.905H504.371V44.425H495.276L488.986 38.05V35.84L483.886 30.74V61.085H475.896L468.501 53.605V1.5H483.801L494.936 12.55H499.866V1.5H512.701Z"/>
</mask>
<path d="M37.46 47.145H42.56L52.93 57.515V61.085H37.46V47.145ZM45.45 1.5L52.93 8.895V45.275H47.83L37.46 34.905H37.12V44.425H28.025L21.735 38.05V35.84L16.635 30.74V61.085H8.645L1.25 53.605V1.5H16.55L27.685 12.55H32.615V1.5H45.45ZM60.9326 21.815H65.3526L78.3576 34.82V61H68.2426L60.9326 53.605V21.815ZM71.1326 1.58499L78.3576 8.81V27.595L60.9326 10.17V1.58499H71.1326ZM131.116 45.02L138.426 52.415V61H126.186L115.136 50.035V45.02H131.116ZM102.811 4.475V45.02L115.561 57.77V61H86.8311V1.5H99.9211L102.811 4.475ZM191.214 45.02L198.524 52.415V61H186.284L175.234 50.035V45.02H191.214ZM162.909 4.475V45.02L175.659 57.77V61H146.929V1.5H160.019L162.909 4.475ZM222.4 45.615H248.24L255.55 53.01V61H211.35L203.955 53.605V8.725L219.34 24.11V42.47L222.4 45.615ZM224.355 24.025H237.87L247.815 34.055V39.41H227.5L224.355 36.35V24.025ZM243.395 17.905H220.275L208.8 6.43V1.5H248.24L255.55 8.98V24.025H249.515L243.395 17.905ZM299.267 33.12H304.282L314.652 43.405V61H306.577L299.267 53.605V33.12ZM307.257 1.5L314.652 8.98V36.265L296.207 17.82H275.297L278.442 20.965V61H270.452L263.057 53.605V1.5H307.257ZM359.364 33.12H364.379L374.749 43.405V61H366.674L359.364 53.605V33.12ZM367.354 1.5L374.749 8.98V36.265L356.304 17.82H335.394L338.539 20.965V61H330.549L323.154 53.605V1.5H367.354ZM382.837 21.815H387.257L400.262 34.82V61H390.147L382.837 53.605V21.815ZM393.037 1.58499L400.262 8.81V27.595L382.837 10.17V1.58499H393.037ZM452.52 1.5L460 8.895V19.35H454.9L442.49 6.94V1.5H452.52ZM442.49 19.18H447.59L460 31.59V61H424.385L408.32 44.935V1.5H418.35L425.745 8.895L425.83 40.345L428.89 43.49H442.49V19.18ZM504.711 47.145H509.811L520.181 57.515V61.085H504.711V47.145ZM512.701 1.5L520.181 8.895V45.275H515.081L504.711 34.905H504.371V44.425H495.276L488.986 38.05V35.84L483.886 30.74V61.085H475.896L468.501 53.605V1.5H483.801L494.936 12.55H499.866V1.5H512.701Z" fill="#FDFDFD"/>
<path d="M37.545 47.06V46.06H36.545V47.06H37.545ZM42.56 47.06L43.2671 46.3529L42.9742 46.06H42.56V47.06ZM52.93 57.43H53.93V57.0158L53.6371 56.7229L52.93 57.43ZM52.93 61V62H53.93V61H52.93ZM37.545 61H36.545V62H37.545V61ZM45.535 1.415L46.2461 0.711942L45.9526 0.414997H45.535V1.415ZM52.93 8.895H53.93V8.48413L53.6411 8.19194L52.93 8.895ZM52.93 45.19V46.19H53.93V45.19H52.93ZM47.915 45.19L47.2079 45.8971L47.5008 46.19H47.915V45.19ZM37.545 34.82L38.2521 34.1129L37.9592 33.82H37.545V34.82ZM37.205 34.82V33.82H36.205V34.82H37.205ZM37.205 44.34V45.34H38.205V44.34H37.205ZM28.025 44.34L27.3179 45.0471L27.6108 45.34H28.025V44.34ZM21.735 38.05H20.735V38.4642L21.0279 38.7571L21.735 38.05ZM21.735 35.755H22.735V35.3408L22.4421 35.0479L21.735 35.755ZM16.635 30.655L17.3421 29.9479L15.635 28.2408V30.655H16.635ZM16.635 61V62H17.635V61H16.635ZM8.645 61L7.93789 61.7071L8.23079 62H8.645V61ZM1.25 53.605H0.25V54.0192L0.542893 54.3121L1.25 53.605ZM1.25 1.415V0.414997H0.25V1.415H1.25ZM16.635 1.415L17.3448 0.710604L17.0515 0.414997H16.635V1.415ZM27.685 12.55L26.9752 13.2544L27.2685 13.55H27.685V12.55ZM32.7 12.55V13.55H33.7V12.55H32.7ZM32.7 1.415V0.414997H31.7V1.415H32.7ZM37.545 47.06V48.06H42.56V47.06V46.06H37.545V47.06ZM42.56 47.06L41.8529 47.7671L52.2229 58.1371L52.93 57.43L53.6371 56.7229L43.2671 46.3529L42.56 47.06ZM52.93 57.43H51.93V61H52.93H53.93V57.43H52.93ZM52.93 61V60H37.545V61V62H52.93V61ZM37.545 61H38.545V47.06H37.545H36.545V61H37.545ZM45.535 1.415L44.8239 2.11805L52.2189 9.59805L52.93 8.895L53.6411 8.19194L46.2461 0.711942L45.535 1.415ZM52.93 8.895H51.93V45.19H52.93H53.93V8.895H52.93ZM52.93 45.19V44.19H47.915V45.19V46.19H52.93V45.19ZM47.915 45.19L48.6221 44.4829L38.2521 34.1129L37.545 34.82L36.8379 35.5271L47.2079 45.8971L47.915 45.19ZM37.545 34.82V33.82H37.205V34.82V35.82H37.545V34.82ZM37.205 34.82H36.205V44.34H37.205H38.205V34.82H37.205ZM37.205 44.34V43.34H28.025V44.34V45.34H37.205V44.34ZM28.025 44.34L28.7321 43.6329L22.4421 37.3429L21.735 38.05L21.0279 38.7571L27.3179 45.0471L28.025 44.34ZM21.735 38.05H22.735V35.755H21.735H20.735V38.05H21.735ZM21.735 35.755L22.4421 35.0479L17.3421 29.9479L16.635 30.655L15.9279 31.3621L21.0279 36.4621L21.735 35.755ZM16.635 30.655H15.635V61H16.635H17.635V30.655H16.635ZM16.635 61V60H8.645V61V62H16.635V61ZM8.645 61L9.35211 60.2929L1.95711 52.8979L1.25 53.605L0.542893 54.3121L7.93789 61.7071L8.645 61ZM1.25 53.605H2.25V1.415H1.25H0.25V53.605H1.25ZM1.25 1.415V2.415H16.635V1.415V0.414997H1.25V1.415ZM16.635 1.415L15.9252 2.11939L26.9752 13.2544L27.685 12.55L28.3948 11.8456L17.3448 0.710604L16.635 1.415ZM27.685 12.55V13.55H32.7V12.55V11.55H27.685V12.55ZM32.7 12.55H33.7V1.415H32.7H31.7V12.55H32.7ZM32.7 1.415V2.415H45.535V1.415V0.414997H32.7V1.415ZM60.9326 21.815V20.815H59.9326V21.815H60.9326ZM65.3526 21.815L66.0574 21.1056L65.7649 20.815H65.3526V21.815ZM78.3576 34.735H79.3576V34.3189L79.0624 34.0256L78.3576 34.735ZM78.3576 61V62H79.3576V61H78.3576ZM68.2426 61L67.5314 61.703L67.825 62H68.2426V61ZM60.9326 53.605H59.9326V54.0158L60.2214 54.308L60.9326 53.605ZM71.2176 1.5L71.933 0.801256L71.6387 0.499996H71.2176V1.5ZM78.3576 8.81H79.3576V8.40266L79.073 8.11126L78.3576 8.81ZM78.3576 27.595L77.6505 28.3021L79.3576 30.0092V27.595H78.3576ZM60.9326 10.17H59.9326V10.5842L60.2255 10.8771L60.9326 10.17ZM60.9326 1.5V0.499996H59.9326V1.5H60.9326ZM60.9326 21.815V22.815H65.3526V21.815V20.815H60.9326V21.815ZM65.3526 21.815L64.6478 22.5244L77.6528 35.4444L78.3576 34.735L79.0624 34.0256L66.0574 21.1056L65.3526 21.815ZM78.3576 34.735H77.3576V61H78.3576H79.3576V34.735H78.3576ZM78.3576 61V60H68.2426V61V62H78.3576V61ZM68.2426 61L68.9538 60.297L61.6438 52.902L60.9326 53.605L60.2214 54.308L67.5314 61.703L68.2426 61ZM60.9326 53.605H61.9326V21.815H60.9326H59.9326V53.605H60.9326ZM71.2176 1.5L70.5022 2.19874L77.6422 9.50874L78.3576 8.81L79.073 8.11126L71.933 0.801256L71.2176 1.5ZM78.3576 8.81H77.3576V27.595H78.3576H79.3576V8.81H78.3576ZM78.3576 27.595L79.0647 26.8879L61.6397 9.46289L60.9326 10.17L60.2255 10.8771L77.6505 28.3021L78.3576 27.595ZM60.9326 10.17H61.9326V1.5H60.9326H59.9326V10.17H60.9326ZM60.9326 1.5V2.5H71.2176V1.5V0.499996H60.9326V1.5ZM131.116 44.935L131.827 44.232L131.534 43.935H131.116V44.935ZM138.426 52.33H139.426V51.9192L139.137 51.627L138.426 52.33ZM138.426 61V62H139.426V61H138.426ZM126.186 61L125.476 61.7044L125.77 62H126.186V61ZM115.221 49.95H114.221V50.362L114.511 50.6544L115.221 49.95ZM115.221 44.935V43.935H114.221V44.935H115.221ZM102.896 4.475H103.896V4.06078L103.603 3.76789L102.896 4.475ZM102.896 44.935H101.896V45.3492L102.189 45.6421L102.896 44.935ZM115.646 57.685H116.646V57.2708L116.353 56.9779L115.646 57.685ZM115.646 61V62H116.646V61H115.646ZM86.8311 61H85.8311V62H86.8311V61ZM86.8311 1.5V0.499996H85.8311V1.5H86.8311ZM99.9211 1.5L100.628 0.792889L100.335 0.499996H99.9211V1.5ZM131.116 44.935L130.405 45.638L137.715 53.033L138.426 52.33L139.137 51.627L131.827 44.232L131.116 44.935ZM138.426 52.33H137.426V61H138.426H139.426V52.33H138.426ZM138.426 61V60H126.186V61V62H138.426V61ZM126.186 61L126.896 60.2956L115.931 49.2456L115.221 49.95L114.511 50.6544L125.476 61.7044L126.186 61ZM115.221 49.95H116.221V44.935H115.221H114.221V49.95H115.221ZM115.221 44.935V45.935H131.116V44.935V43.935H115.221V44.935ZM102.896 4.475H101.896V44.935H102.896H103.896V4.475H102.896ZM102.896 44.935L102.189 45.6421L114.939 58.3921L115.646 57.685L116.353 56.9779L103.603 44.2279L102.896 44.935ZM115.646 57.685H114.646V61H115.646H116.646V57.685H115.646ZM115.646 61V60H86.8311V61V62H115.646V61ZM86.8311 61H87.8311V1.5H86.8311H85.8311V61H86.8311ZM86.8311 1.5V2.5H99.9211V1.5V0.499996H86.8311V1.5ZM99.9211 1.5L99.214 2.2071L102.189 5.18211L102.896 4.475L103.603 3.76789L100.628 0.792889L99.9211 1.5ZM191.214 44.935L191.925 44.232L191.631 43.935H191.214V44.935ZM198.524 52.33H199.524V51.9192L199.235 51.627L198.524 52.33ZM198.524 61V62H199.524V61H198.524ZM186.284 61L185.574 61.7044L185.867 62H186.284V61ZM175.319 49.95H174.319V50.362L174.609 50.6544L175.319 49.95ZM175.319 44.935V43.935H174.319V44.935H175.319ZM162.994 4.475H163.994V4.06078L163.701 3.76789L162.994 4.475ZM162.994 44.935H161.994V45.3492L162.287 45.6421L162.994 44.935ZM175.744 57.685H176.744V57.2708L176.451 56.9779L175.744 57.685ZM175.744 61V62H176.744V61H175.744ZM146.929 61H145.929V62H146.929V61ZM146.929 1.5V0.499996H145.929V1.5H146.929ZM160.019 1.5L160.726 0.792889L160.433 0.499996H160.019V1.5ZM191.214 44.935L190.503 45.638L197.813 53.033L198.524 52.33L199.235 51.627L191.925 44.232L191.214 44.935ZM198.524 52.33H197.524V61H198.524H199.524V52.33H198.524ZM198.524 61V60H186.284V61V62H198.524V61ZM186.284 61L186.994 60.2956L176.029 49.2456L175.319 49.95L174.609 50.6544L185.574 61.7044L186.284 61ZM175.319 49.95H176.319V44.935H175.319H174.319V49.95H175.319ZM175.319 44.935V45.935H191.214V44.935V43.935H175.319V44.935ZM162.994 4.475H161.994V44.935H162.994H163.994V4.475H162.994ZM162.994 44.935L162.287 45.6421L175.037 58.3921L175.744 57.685L176.451 56.9779L163.701 44.2279L162.994 44.935ZM175.744 57.685H174.744V61H175.744H176.744V57.685H175.744ZM175.744 61V60H146.929V61V62H175.744V61ZM146.929 61H147.929V1.5H146.929H145.929V61H146.929ZM146.929 1.5V2.5H160.019V1.5V0.499996H146.929V1.5ZM160.019 1.5L159.312 2.2071L162.287 5.18211L162.994 4.475L163.701 3.76789L160.726 0.792889L160.019 1.5ZM222.485 45.615L221.778 46.3221L222.071 46.615H222.485V45.615ZM248.24 45.615L248.951 44.912L248.658 44.615H248.24V45.615ZM255.55 53.01H256.55V52.5992L256.261 52.307L255.55 53.01ZM255.55 61V62H256.55V61H255.55ZM211.35 61L210.643 61.7071L210.936 62H211.35V61ZM203.955 53.605H202.955V54.0192L203.248 54.3121L203.955 53.605ZM203.955 8.725L204.662 8.01789L202.955 6.31079V8.725H203.955ZM219.34 24.11H220.34V23.6958L220.047 23.4029L219.34 24.11ZM219.34 42.47H218.34V42.8842L218.633 43.1771L219.34 42.47ZM224.44 24.025V23.025H223.44V24.025H224.44ZM237.955 24.025L238.662 23.3179L238.369 23.025H237.955V24.025ZM247.9 33.97H248.9V33.5558L248.607 33.2629L247.9 33.97ZM247.9 39.41V40.41H248.9V39.41H247.9ZM227.5 39.41L226.783 40.1074L227.078 40.41H227.5V39.41ZM224.44 36.265H223.44V36.6712L223.723 36.9624L224.44 36.265ZM243.48 17.82L244.192 17.1178L243.898 16.82H243.48V17.82ZM220.275 17.82L219.568 18.5271L219.861 18.82H220.275V17.82ZM208.885 6.43H207.885V6.84421L208.178 7.1371L208.885 6.43ZM208.885 1.5V0.499996H207.885V1.5H208.885ZM248.24 1.5L248.951 0.796988L248.658 0.499996H248.24V1.5ZM255.55 8.895H256.55V8.48417L256.261 8.19199L255.55 8.895ZM255.55 24.025V25.025H256.55V24.025H255.55ZM249.6 24.025L248.888 24.7272L249.182 25.025H249.6V24.025ZM222.485 45.615V46.615H248.24V45.615V44.615H222.485V45.615ZM248.24 45.615L247.529 46.318L254.839 53.713L255.55 53.01L256.261 52.307L248.951 44.912L248.24 45.615ZM255.55 53.01H254.55V61H255.55H256.55V53.01H255.55ZM255.55 61V60H211.35V61V62H255.55V61ZM211.35 61L212.057 60.2929L204.662 52.8979L203.955 53.605L203.248 54.3121L210.643 61.7071L211.35 61ZM203.955 53.605H204.955V8.725H203.955H202.955V53.605H203.955ZM203.955 8.725L203.248 9.43211L218.633 24.8171L219.34 24.11L220.047 23.4029L204.662 8.01789L203.955 8.725ZM219.34 24.11H218.34V42.47H219.34H220.34V24.11H219.34ZM219.34 42.47L218.633 43.1771L221.778 46.3221L222.485 45.615L223.192 44.9079L220.047 41.7629L219.34 42.47ZM224.44 24.025V25.025H237.955V24.025V23.025H224.44V24.025ZM237.955 24.025L237.248 24.7321L247.193 34.6771L247.9 33.97L248.607 33.2629L238.662 23.3179L237.955 24.025ZM247.9 33.97H246.9V39.41H247.9H248.9V33.97H247.9ZM247.9 39.41V38.41H227.5V39.41V40.41H247.9V39.41ZM227.5 39.41L228.217 38.7126L225.157 35.5676L224.44 36.265L223.723 36.9624L226.783 40.1074L227.5 39.41ZM224.44 36.265H225.44V24.025H224.44H223.44V36.265H224.44ZM243.48 17.82V16.82H220.275V17.82V18.82H243.48V17.82ZM220.275 17.82L220.982 17.1129L209.592 5.72289L208.885 6.43L208.178 7.1371L219.568 18.5271L220.275 17.82ZM208.885 6.43H209.885V1.5H208.885H207.885V6.43H208.885ZM208.885 1.5V2.5H248.24V1.5V0.499996H208.885V1.5ZM248.24 1.5L247.529 2.203L254.839 9.598L255.55 8.895L256.261 8.19199L248.951 0.796988L248.24 1.5ZM255.55 8.895H254.55V24.025H255.55H256.55V8.895H255.55ZM255.55 24.025V23.025H249.6V24.025V25.025H255.55V24.025ZM249.6 24.025L250.312 23.3228L244.192 17.1178L243.48 17.82L242.768 18.5222L248.888 24.7272L249.6 24.025ZM299.267 33.035V32.035H298.267V33.035H299.267ZM304.367 33.035L305.077 32.3308L304.783 32.035H304.367V33.035ZM314.652 43.405H315.652V42.9932L315.362 42.7008L314.652 43.405ZM314.652 61V62H315.652V61H314.652ZM306.662 61L305.955 61.7071L306.247 62H306.662V61ZM299.267 53.605H298.267V54.0192L298.56 54.3121L299.267 53.605ZM307.257 1.5L307.964 0.792889L307.671 0.499996H307.257V1.5ZM314.652 8.895H315.652V8.48078L315.359 8.18789L314.652 8.895ZM314.652 36.18L313.945 36.8871L315.652 38.5942V36.18H314.652ZM296.292 17.82L296.999 17.1129L296.706 16.82H296.292V17.82ZM275.382 17.82V16.82H272.967L274.675 18.5271L275.382 17.82ZM278.442 20.88H279.442V20.4658L279.149 20.1729L278.442 20.88ZM278.442 61V62H279.442V61H278.442ZM270.452 61L269.745 61.7071L270.037 62H270.452V61ZM263.057 53.605H262.057V54.0192L262.35 54.3121L263.057 53.605ZM263.057 1.5V0.499996H262.057V1.5H263.057ZM299.267 33.035V34.035H304.367V33.035V32.035H299.267V33.035ZM304.367 33.035L303.657 33.7392L313.942 44.1092L314.652 43.405L315.362 42.7008L305.077 32.3308L304.367 33.035ZM314.652 43.405H313.652V61H314.652H315.652V43.405H314.652ZM314.652 61V60H306.662V61V62H314.652V61ZM306.662 61L307.369 60.2929L299.974 52.8979L299.267 53.605L298.56 54.3121L305.955 61.7071L306.662 61ZM299.267 53.605H300.267V33.035H299.267H298.267V53.605H299.267ZM307.257 1.5L306.55 2.2071L313.945 9.6021L314.652 8.895L315.359 8.18789L307.964 0.792889L307.257 1.5ZM314.652 8.895H313.652V36.18H314.652H315.652V8.895H314.652ZM314.652 36.18L315.359 35.4729L296.999 17.1129L296.292 17.82L295.585 18.5271L313.945 36.8871L314.652 36.18ZM296.292 17.82V16.82H275.382V17.82V18.82H296.292V17.82ZM275.382 17.82L274.675 18.5271L277.735 21.5871L278.442 20.88L279.149 20.1729L276.089 17.1129L275.382 17.82ZM278.442 20.88H277.442V61H278.442H279.442V20.88H278.442ZM278.442 61V60H270.452V61V62H278.442V61ZM270.452 61L271.159 60.2929L263.764 52.8979L263.057 53.605L262.35 54.3121L269.745 61.7071L270.452 61ZM263.057 53.605H264.057V1.5H263.057H262.057V53.605H263.057ZM263.057 1.5V2.5H307.257V1.5V0.499996H263.057V1.5ZM359.364 33.035V32.035H358.364V33.035H359.364ZM364.464 33.035L365.174 32.3308L364.881 32.035H364.464V33.035ZM374.749 43.405H375.749V42.9932L375.459 42.7008L374.749 43.405ZM374.749 61V62H375.749V61H374.749ZM366.759 61L366.052 61.7071L366.345 62H366.759V61ZM359.364 53.605H358.364V54.0192L358.657 54.3121L359.364 53.605ZM367.354 1.5L368.061 0.792889L367.769 0.499996H367.354V1.5ZM374.749 8.895H375.749V8.48078L375.456 8.18789L374.749 8.895ZM374.749 36.18L374.042 36.8871L375.749 38.5942V36.18H374.749ZM356.389 17.82L357.096 17.1129L356.803 16.82H356.389V17.82ZM335.479 17.82V16.82H333.065L334.772 18.5271L335.479 17.82ZM338.539 20.88H339.539V20.4658L339.246 20.1729L338.539 20.88ZM338.539 61V62H339.539V61H338.539ZM330.549 61L329.842 61.7071L330.135 62H330.549V61ZM323.154 53.605H322.154V54.0192L322.447 54.3121L323.154 53.605ZM323.154 1.5V0.499996H322.154V1.5H323.154ZM359.364 33.035V34.035H364.464V33.035V32.035H359.364V33.035ZM364.464 33.035L363.754 33.7392L374.039 44.1092L374.749 43.405L375.459 42.7008L365.174 32.3308L364.464 33.035ZM374.749 43.405H373.749V61H374.749H375.749V43.405H374.749ZM374.749 61V60H366.759V61V62H374.749V61ZM366.759 61L367.466 60.2929L360.071 52.8979L359.364 53.605L358.657 54.3121L366.052 61.7071L366.759 61ZM359.364 53.605H360.364V33.035H359.364H358.364V53.605H359.364ZM367.354 1.5L366.647 2.2071L374.042 9.6021L374.749 8.895L375.456 8.18789L368.061 0.792889L367.354 1.5ZM374.749 8.895H373.749V36.18H374.749H375.749V8.895H374.749ZM374.749 36.18L375.456 35.4729L357.096 17.1129L356.389 17.82L355.682 18.5271L374.042 36.8871L374.749 36.18ZM356.389 17.82V16.82H335.479V17.82V18.82H356.389V17.82ZM335.479 17.82L334.772 18.5271L337.832 21.5871L338.539 20.88L339.246 20.1729L336.186 17.1129L335.479 17.82ZM338.539 20.88H337.539V61H338.539H339.539V20.88H338.539ZM338.539 61V60H330.549V61V62H338.539V61ZM330.549 61L331.256 60.2929L323.861 52.8979L323.154 53.605L322.447 54.3121L329.842 61.7071L330.549 61ZM323.154 53.605H324.154V1.5H323.154H322.154V53.605H323.154ZM323.154 1.5V2.5H367.354V1.5V0.499996H323.154V1.5ZM382.837 21.815V20.815H381.837V21.815H382.837ZM387.257 21.815L387.962 21.1056L387.669 20.815H387.257V21.815ZM400.262 34.735H401.262V34.3189L400.967 34.0256L400.262 34.735ZM400.262 61V62H401.262V61H400.262ZM390.147 61L389.436 61.703L389.729 62H390.147V61ZM382.837 53.605H381.837V54.0158L382.126 54.308L382.837 53.605ZM393.122 1.5L393.837 0.801256L393.543 0.499996H393.122V1.5ZM400.262 8.81H401.262V8.40266L400.977 8.11126L400.262 8.81ZM400.262 27.595L399.555 28.3021L401.262 30.0092V27.595H400.262ZM382.837 10.17H381.837V10.5842L382.13 10.8771L382.837 10.17ZM382.837 1.5V0.499996H381.837V1.5H382.837ZM382.837 21.815V22.815H387.257V21.815V20.815H382.837V21.815ZM387.257 21.815L386.552 22.5244L399.557 35.4444L400.262 34.735L400.967 34.0256L387.962 21.1056L387.257 21.815ZM400.262 34.735H399.262V61H400.262H401.262V34.735H400.262ZM400.262 61V60H390.147V61V62H400.262V61ZM390.147 61L390.858 60.297L383.548 52.902L382.837 53.605L382.126 54.308L389.436 61.703L390.147 61ZM382.837 53.605H383.837V21.815H382.837H381.837V53.605H382.837ZM393.122 1.5L392.407 2.19874L399.547 9.50874L400.262 8.81L400.977 8.11126L393.837 0.801256L393.122 1.5ZM400.262 8.81H399.262V27.595H400.262H401.262V8.81H400.262ZM400.262 27.595L400.969 26.8879L383.544 9.46289L382.837 10.17L382.13 10.8771L399.555 28.3021L400.262 27.595ZM382.837 10.17H383.837V1.5H382.837H381.837V10.17H382.837ZM382.837 1.5V2.5H393.122V1.5V0.499996H382.837V1.5ZM452.605 1.415L453.312 0.70789L453.02 0.414997H452.605V1.415ZM460 8.81H461V8.39578L460.707 8.10289L460 8.81ZM460 19.265V20.265H461V19.265H460ZM454.985 19.265L454.281 19.9745L454.573 20.265H454.985V19.265ZM442.575 6.94H441.575V7.35623L441.871 7.64953L442.575 6.94ZM442.575 1.415V0.414997H441.575V1.415H442.575ZM442.575 19.18V18.18H441.575V19.18H442.575ZM447.675 19.18L448.382 18.4729L448.09 18.18H447.675V19.18ZM460 31.505H461V31.0908L460.707 30.7979L460 31.505ZM460 61V62H461V61H460ZM424.385 61L423.678 61.7071L423.971 62H424.385V61ZM408.32 44.935H407.32V45.3492L407.613 45.6421L408.32 44.935ZM408.32 1.415V0.414997H407.32V1.415H408.32ZM418.35 1.415L419.057 0.70789L418.765 0.414997H418.35V1.415ZM425.745 8.81L426.745 8.8073L426.744 8.39467L426.452 8.10289L425.745 8.81ZM425.83 40.345L424.83 40.3477L424.831 40.7603L425.123 41.0521L425.83 40.345ZM428.975 43.49L428.268 44.1971L428.561 44.49H428.975V43.49ZM442.575 43.49V44.49H443.575V43.49H442.575ZM452.605 1.415L451.898 2.1221L459.293 9.51711L460 8.81L460.707 8.10289L453.312 0.70789L452.605 1.415ZM460 8.81H459V19.265H460H461V8.81H460ZM460 19.265V18.265H454.985V19.265V20.265H460V19.265ZM454.985 19.265L455.69 18.5555L443.28 6.23046L442.575 6.94L441.871 7.64953L454.281 19.9745L454.985 19.265ZM442.575 6.94H443.575V1.415H442.575H441.575V6.94H442.575ZM442.575 1.415V2.415H452.605V1.415V0.414997H442.575V1.415ZM442.575 19.18V20.18H447.675V19.18V18.18H442.575V19.18ZM447.675 19.18L446.968 19.8871L459.293 32.2121L460 31.505L460.707 30.7979L448.382 18.4729L447.675 19.18ZM460 31.505H459V61H460H461V31.505H460ZM460 61V60H424.385V61V62H460V61ZM424.385 61L425.092 60.2929L409.027 44.2279L408.32 44.935L407.613 45.6421L423.678 61.7071L424.385 61ZM408.32 44.935H409.32V1.415H408.32H407.32V44.935H408.32ZM408.32 1.415V2.415H418.35V1.415V0.414997H408.32V1.415ZM418.35 1.415L417.643 2.1221L425.038 9.51711L425.745 8.81L426.452 8.10289L419.057 0.70789L418.35 1.415ZM425.745 8.81L424.745 8.81269L424.83 40.3477L425.83 40.345L426.83 40.3423L426.745 8.8073L425.745 8.81ZM425.83 40.345L425.123 41.0521L428.268 44.1971L428.975 43.49L429.682 42.7829L426.537 39.6379L425.83 40.345ZM428.975 43.49V44.49H442.575V43.49V42.49H428.975V43.49ZM442.575 43.49H443.575V19.18H442.575H441.575V43.49H442.575ZM504.796 47.06V46.06H503.796V47.06H504.796ZM509.811 47.06L510.518 46.3529L510.225 46.06H509.811V47.06ZM520.181 57.43H521.181V57.0158L520.888 56.7229L520.181 57.43ZM520.181 61V62H521.181V61H520.181ZM504.796 61H503.796V62H504.796V61ZM512.786 1.415L513.497 0.711942L513.204 0.414997H512.786V1.415ZM520.181 8.895H521.181V8.48413L520.892 8.19194L520.181 8.895ZM520.181 45.19V46.19H521.181V45.19H520.181ZM515.166 45.19L514.459 45.8971L514.752 46.19H515.166V45.19ZM504.796 34.82L505.503 34.1129L505.21 33.82H504.796V34.82ZM504.456 34.82V33.82H503.456V34.82H504.456ZM504.456 44.34V45.34H505.456V44.34H504.456ZM495.276 44.34L494.569 45.0471L494.862 45.34H495.276V44.34ZM488.986 38.05H487.986V38.4642L488.279 38.7571L488.986 38.05ZM488.986 35.755H489.986V35.3408L489.693 35.0479L488.986 35.755ZM483.886 30.655L484.593 29.9479L482.886 28.2408V30.655H483.886ZM483.886 61V62H484.886V61H483.886ZM475.896 61L475.189 61.7071L475.482 62H475.896V61ZM468.501 53.605H467.501V54.0192L467.794 54.3121L468.501 53.605ZM468.501 1.415V0.414997H467.501V1.415H468.501ZM483.886 1.415L484.596 0.710604L484.302 0.414997H483.886V1.415ZM494.936 12.55L494.226 13.2544L494.52 13.55H494.936V12.55ZM499.951 12.55V13.55H500.951V12.55H499.951ZM499.951 1.415V0.414997H498.951V1.415H499.951ZM504.796 47.06V48.06H509.811V47.06V46.06H504.796V47.06ZM509.811 47.06L509.104 47.7671L519.474 58.1371L520.181 57.43L520.888 56.7229L510.518 46.3529L509.811 47.06ZM520.181 57.43H519.181V61H520.181H521.181V57.43H520.181ZM520.181 61V60H504.796V61V62H520.181V61ZM504.796 61H505.796V47.06H504.796H503.796V61H504.796ZM512.786 1.415L512.075 2.11805L519.47 9.59805L520.181 8.895L520.892 8.19194L513.497 0.711942L512.786 1.415ZM520.181 8.895H519.181V45.19H520.181H521.181V8.895H520.181ZM520.181 45.19V44.19H515.166V45.19V46.19H520.181V45.19ZM515.166 45.19L515.873 44.4829L505.503 34.1129L504.796 34.82L504.089 35.5271L514.459 45.8971L515.166 45.19ZM504.796 34.82V33.82H504.456V34.82V35.82H504.796V34.82ZM504.456 34.82H503.456V44.34H504.456H505.456V34.82H504.456ZM504.456 44.34V43.34H495.276V44.34V45.34H504.456V44.34ZM495.276 44.34L495.983 43.6329L489.693 37.3429L488.986 38.05L488.279 38.7571L494.569 45.0471L495.276 44.34ZM488.986 38.05H489.986V35.755H488.986H487.986V38.05H488.986ZM488.986 35.755L489.693 35.0479L484.593 29.9479L483.886 30.655L483.179 31.3621L488.279 36.4621L488.986 35.755ZM483.886 30.655H482.886V61H483.886H484.886V30.655H483.886ZM483.886 61V60H475.896V61V62H483.886V61ZM475.896 61L476.603 60.2929L469.208 52.8979L468.501 53.605L467.794 54.3121L475.189 61.7071L475.896 61ZM468.501 53.605H469.501V1.415H468.501H467.501V53.605H468.501ZM468.501 1.415V2.415H483.886V1.415V0.414997H468.501V1.415ZM483.886 1.415L483.176 2.11939L494.226 13.2544L494.936 12.55L495.646 11.8456L484.596 0.710604L483.886 1.415ZM494.936 12.55V13.55H499.951V12.55V11.55H494.936V12.55ZM499.951 12.55H500.951V1.415H499.951H498.951V12.55H499.951ZM499.951 1.415V2.415H512.786V1.415V0.414997H499.951V1.415Z" fill="#131313" mask="url(#path-1-outside-1_2244_469)"/>
</svg>
