<svg width="431" height="53" viewBox="0 0 431 53" fill="none" xmlns="http://www.w3.org/2000/svg">
<path d="M31.32 39.59V38.34C30.6296 38.34 30.07 38.8996 30.07 39.59H31.32ZM35.52 39.59L36.4039 38.7061C36.1695 38.4717 35.8515 38.34 35.52 38.34V39.59ZM44.06 48.13H45.31C45.31 47.7985 45.1783 47.4805 44.9439 47.2461L44.06 48.13ZM44.06 51.07V52.32C44.7504 52.32 45.31 51.7604 45.31 51.07H44.06ZM31.32 51.07H30.07C30.07 51.7604 30.6296 52.32 31.32 52.32V51.07ZM37.9 2L38.7788 1.11108C38.5448 0.879739 38.229 0.749997 37.9 0.749997V2ZM44.06 8.09H45.31C45.31 7.756 45.1763 7.4359 44.9388 7.20108L44.06 8.09ZM44.06 38.05V39.3C44.7504 39.3 45.31 38.7404 45.31 38.05H44.06ZM39.86 38.05L38.9761 38.9339C39.2105 39.1683 39.5285 39.3 39.86 39.3V38.05ZM31.32 29.51L32.2039 28.6261C31.9695 28.3917 31.6515 28.26 31.32 28.26V29.51ZM31.04 29.51V28.26C30.3496 28.26 29.79 28.8196 29.79 29.51H31.04ZM31.04 37.35V38.6C31.7304 38.6 32.29 38.0404 32.29 37.35H31.04ZM23.55 37.35L22.6602 38.2279C22.8951 38.466 23.2156 38.6 23.55 38.6V37.35ZM18.37 32.1H17.12C17.12 32.4286 17.2494 32.744 17.4802 32.9779L18.37 32.1ZM18.37 30.28H19.62C19.62 29.9485 19.4883 29.6305 19.2539 29.3961L18.37 30.28ZM14.17 26.08L15.0539 25.1961C14.6964 24.8386 14.1587 24.7317 13.6916 24.9252C13.2246 25.1186 12.92 25.5744 12.92 26.08H14.17ZM14.17 51.07V52.32C14.8604 52.32 15.42 51.7604 15.42 51.07H14.17ZM7.59 51.07L6.70108 51.9488C6.9359 52.1863 7.256 52.32 7.59 52.32V51.07ZM1.5 44.91H0.25C0.25 45.239 0.379743 45.5548 0.61108 45.7888L1.5 44.91ZM1.5 2V0.749997C0.809644 0.749997 0.25 1.30964 0.25 2H1.5ZM14.1 2L14.9805 1.11273C14.7464 0.880381 14.4299 0.749997 14.1 0.749997V2ZM23.27 11.1L22.3895 11.9873C22.6237 12.2196 22.9401 12.35 23.27 12.35V11.1ZM27.33 11.1V12.35C28.0204 12.35 28.58 11.7904 28.58 11.1H27.33ZM27.33 2V0.749997C26.6396 0.749997 26.08 1.30964 26.08 2H27.33ZM31.32 39.59V40.84H35.52V39.59V38.34H31.32V39.59ZM35.52 39.59L34.6361 40.4739L43.1761 49.0139L44.06 48.13L44.9439 47.2461L36.4039 38.7061L35.52 39.59ZM44.06 48.13H42.81V51.07H44.06H45.31V48.13H44.06ZM44.06 51.07V49.82H31.32V51.07V52.32H44.06V51.07ZM31.32 51.07H32.57V39.59H31.32H30.07V51.07H31.32ZM37.9 2L37.0212 2.88892L43.1812 8.97892L44.06 8.09L44.9388 7.20108L38.7788 1.11108L37.9 2ZM44.06 8.09H42.81V38.05H44.06H45.31V8.09H44.06ZM44.06 38.05V36.8H39.86V38.05V39.3H44.06V38.05ZM39.86 38.05L40.7439 37.1661L32.2039 28.6261L31.32 29.51L30.4361 30.3939L38.9761 38.9339L39.86 38.05ZM31.32 29.51V28.26H31.04V29.51V30.76H31.32V29.51ZM31.04 29.51H29.79V37.35H31.04H32.29V29.51H31.04ZM31.04 37.35V36.1H23.55V37.35V38.6H31.04V37.35ZM23.55 37.35L24.4398 36.4721L19.2598 31.2221L18.37 32.1L17.4802 32.9779L22.6602 38.2279L23.55 37.35ZM18.37 32.1H19.62V30.28H18.37H17.12V32.1H18.37ZM18.37 30.28L19.2539 29.3961L15.0539 25.1961L14.17 26.08L13.2861 26.9639L17.4861 31.1639L18.37 30.28ZM14.17 26.08H12.92V51.07H14.17H15.42V26.08H14.17ZM14.17 51.07V49.82H7.59V51.07V52.32H14.17V51.07ZM7.59 51.07L8.47892 50.1912L2.38892 44.0312L1.5 44.91L0.61108 45.7888L6.70108 51.9488L7.59 51.07ZM1.5 44.91H2.75V2H1.5H0.25V44.91H1.5ZM1.5 2V3.25H14.1V2V0.749997H1.5V2ZM14.1 2L13.2195 2.88726L22.3895 11.9873L23.27 11.1L24.1505 10.2127L14.9805 1.11273L14.1 2ZM23.27 11.1V12.35H27.33V11.1V9.85H23.27V11.1ZM27.33 11.1H28.58V2H27.33H26.08V11.1H27.33ZM27.33 2V3.25H37.9V2V0.749997L27.33 0.749997V2ZM50.6504 18.73V17.48C49.96 17.48 49.4004 18.0396 49.4004 18.73H50.6504ZM54.2904 18.73L55.1743 17.8461C54.9399 17.6117 54.6219 17.48 54.2904 17.48V18.73ZM65.0004 29.44H66.2504C66.2504 29.1085 66.1187 28.7905 65.8843 28.5561L65.0004 29.44ZM65.0004 51V52.25C65.6907 52.25 66.2504 51.6904 66.2504 51H65.0004ZM56.6704 51L55.7814 51.8788C56.0162 52.1163 56.3364 52.25 56.6704 52.25V51ZM50.6504 44.91H49.4004C49.4004 45.239 49.5301 45.5548 49.7614 45.7888L50.6504 44.91ZM59.0504 2.07L59.9343 1.18611C59.6999 0.951692 59.3819 0.819996 59.0504 0.819996V2.07ZM65.0004 8.02H66.2504C66.2504 7.68848 66.1187 7.37054 65.8843 7.13612L65.0004 8.02ZM65.0004 23.49L64.1165 24.3739C64.474 24.7314 65.0117 24.8383 65.4787 24.6448C65.9458 24.4514 66.2504 23.9956 66.2504 23.49H65.0004ZM50.6504 9.14H49.4004C49.4004 9.47152 49.5321 9.78946 49.7665 10.0239L50.6504 9.14ZM50.6504 2.07V0.819996C49.96 0.819996 49.4004 1.37964 49.4004 2.07H50.6504ZM50.6504 18.73V19.98H54.2904V18.73V17.48H50.6504V18.73ZM54.2904 18.73L53.4065 19.6139L64.1165 30.3239L65.0004 29.44L65.8843 28.5561L55.1743 17.8461L54.2904 18.73ZM65.0004 29.44H63.7504V51H65.0004H66.2504V29.44H65.0004ZM65.0004 51V49.75H56.6704V51V52.25H65.0004V51ZM56.6704 51L57.5594 50.1212L51.5394 44.0312L50.6504 44.91L49.7614 45.7888L55.7814 51.8788L56.6704 51ZM50.6504 44.91H51.9004V18.73H50.6504H49.4004V44.91H50.6504ZM59.0504 2.07L58.1665 2.95388L64.1165 8.90388L65.0004 8.02L65.8843 7.13612L59.9343 1.18611L59.0504 2.07ZM65.0004 8.02H63.7504V23.49H65.0004H66.2504V8.02H65.0004ZM65.0004 23.49L65.8843 22.6061L51.5343 8.25611L50.6504 9.14L49.7665 10.0239L64.1165 24.3739L65.0004 23.49ZM50.6504 9.14H51.9004V2.07H50.6504H49.4004V9.14H50.6504ZM50.6504 2.07V3.32H59.0504V2.07V0.819996H50.6504V2.07ZM108.449 37.84L109.337 36.9612C109.103 36.7237 108.783 36.59 108.449 36.59V37.84ZM114.469 43.93H115.719C115.719 43.601 115.589 43.2852 115.357 43.0512L114.469 43.93ZM114.469 51V52.25C115.159 52.25 115.719 51.6904 115.719 51H114.469ZM104.389 51L103.508 51.8873C103.742 52.1196 104.059 52.25 104.389 52.25V51ZM95.2885 41.97H94.0385C94.0385 42.3032 94.1715 42.6226 94.4081 42.8573L95.2885 41.97ZM95.2885 37.84V36.59C94.5982 36.59 94.0385 37.1496 94.0385 37.84H95.2885ZM85.1385 4.45H86.3885C86.3885 4.12475 86.2617 3.81231 86.0351 3.57902L85.1385 4.45ZM85.1385 37.84H83.8885C83.8885 38.1715 84.0202 38.4895 84.2546 38.7239L85.1385 37.84ZM95.6385 48.34H96.8885C96.8885 48.0085 96.7568 47.6905 96.5224 47.4561L95.6385 48.34ZM95.6385 51V52.25C96.3289 52.25 96.8885 51.6904 96.8885 51H95.6385ZM71.9785 51H70.7285C70.7285 51.6904 71.2882 52.25 71.9785 52.25V51ZM71.9785 2V0.749997C71.2882 0.749997 70.7285 1.30964 70.7285 2H71.9785ZM82.7585 2L83.6551 1.12901C83.4197 0.886716 83.0963 0.749997 82.7585 0.749997V2ZM108.449 37.84L107.56 38.7188L113.58 44.8088L114.469 43.93L115.357 43.0512L109.337 36.9612L108.449 37.84ZM114.469 43.93H113.219V51H114.469H115.719V43.93H114.469ZM114.469 51V49.75H104.389V51V52.25H114.469V51ZM104.389 51L105.269 50.1127L96.169 41.0827L95.2885 41.97L94.4081 42.8573L103.508 51.8873L104.389 51ZM95.2885 41.97H96.5385V37.84H95.2885H94.0385V41.97H95.2885ZM95.2885 37.84V39.09H108.449V37.84V36.59H95.2885V37.84ZM85.1385 4.45H83.8885V37.84H85.1385H86.3885V4.45H85.1385ZM85.1385 37.84L84.2546 38.7239L94.7546 49.2239L95.6385 48.34L96.5224 47.4561L86.0224 36.9561L85.1385 37.84ZM95.6385 48.34H94.3885V51H95.6385H96.8885V48.34H95.6385ZM95.6385 51V49.75H71.9785V51V52.25H95.6385V51ZM71.9785 51H73.2285V2H71.9785H70.7285V51H71.9785ZM71.9785 2V3.25H82.7585V2V0.749997H71.9785V2ZM82.7585 2L81.8619 2.87098L84.2419 5.32098L85.1385 4.45L86.0351 3.57902L83.6551 1.12901L82.7585 2ZM157.941 37.84L158.83 36.9612C158.595 36.7237 158.275 36.59 157.941 36.59V37.84ZM163.961 43.93H165.211C165.211 43.601 165.081 43.2852 164.85 43.0512L163.961 43.93ZM163.961 51V52.25C164.651 52.25 165.211 51.6904 165.211 51H163.961ZM153.881 51L153 51.8873C153.234 52.1196 153.551 52.25 153.881 52.25V51ZM144.781 41.97H143.531C143.531 42.3032 143.664 42.6226 143.9 42.8573L144.781 41.97ZM144.781 37.84V36.59C144.09 36.59 143.531 37.1496 143.531 37.84H144.781ZM134.631 4.45H135.881C135.881 4.12475 135.754 3.81231 135.527 3.57902L134.631 4.45ZM134.631 37.84H133.381C133.381 38.1715 133.512 38.4895 133.747 38.7239L134.631 37.84ZM145.131 48.34H146.381C146.381 48.0085 146.249 47.6905 146.015 47.4561L145.131 48.34ZM145.131 51V52.25C145.821 52.25 146.381 51.6904 146.381 51H145.131ZM121.471 51H120.221C120.221 51.6904 120.78 52.25 121.471 52.25V51ZM121.471 2V0.749997C120.78 0.749997 120.221 1.30964 120.221 2H121.471ZM132.251 2L133.147 1.12901C132.912 0.886716 132.589 0.749997 132.251 0.749997V2ZM157.941 37.84L157.052 38.7188L163.072 44.8088L163.961 43.93L164.85 43.0512L158.83 36.9612L157.941 37.84ZM163.961 43.93H162.711V51H163.961H165.211V43.93H163.961ZM163.961 51V49.75H153.881V51V52.25H163.961V51ZM153.881 51L154.761 50.1127L145.661 41.0827L144.781 41.97L143.9 42.8573L153 51.8873L153.881 51ZM144.781 41.97H146.031V37.84H144.781H143.531V41.97H144.781ZM144.781 37.84V39.09H157.941V37.84V36.59H144.781V37.84ZM134.631 4.45H133.381V37.84H134.631H135.881V4.45H134.631ZM134.631 37.84L133.747 38.7239L144.247 49.2239L145.131 48.34L146.015 47.4561L135.515 36.9561L134.631 37.84ZM145.131 48.34H143.881V51H145.131H146.381V48.34H145.131ZM145.131 51V49.75H121.471V51V52.25H145.131V51ZM121.471 51H122.721V2H121.471H120.221V51H121.471ZM121.471 2V3.25L132.251 3.25V2V0.749997H121.471V2ZM132.251 2L131.354 2.87098L133.734 5.32098L134.631 4.45L135.527 3.57902L133.147 1.12901L132.251 2ZM183.624 38.33L182.728 39.2017C182.963 39.4436 183.286 39.58 183.624 39.58V38.33ZM204.904 38.33L205.793 37.4512C205.558 37.2137 205.238 37.08 204.904 37.08V38.33ZM210.924 44.42H212.174C212.174 44.091 212.044 43.7752 211.813 43.5412L210.924 44.42ZM210.924 51V52.25C211.614 52.25 212.174 51.6904 212.174 51H210.924ZM174.524 51L173.64 51.8839C173.874 52.1183 174.192 52.25 174.524 52.25V51ZM168.434 44.91H167.184C167.184 45.2415 167.315 45.5595 167.55 45.7939L168.434 44.91ZM168.434 7.95L169.317 7.06612C168.96 6.70862 168.422 6.60167 167.955 6.79515C167.488 6.98863 167.184 7.44442 167.184 7.95H168.434ZM181.104 20.62H182.354C182.354 20.2885 182.222 19.9705 181.987 19.7361L181.104 20.62ZM181.104 35.74H179.854C179.854 36.0656 179.981 36.3783 180.208 36.6117L181.104 35.74ZM185.234 20.55V19.3C184.543 19.3 183.984 19.8596 183.984 20.55H185.234ZM196.364 20.55L197.251 19.6699C197.017 19.4332 196.697 19.3 196.364 19.3V20.55ZM204.554 28.81H205.804C205.804 28.4803 205.673 28.164 205.441 27.9299L204.554 28.81ZM204.554 33.22V34.47C205.244 34.47 205.804 33.9104 205.804 33.22H204.554ZM187.824 33.22L186.952 34.1159C187.185 34.343 187.498 34.47 187.824 34.47V33.22ZM185.234 30.7H183.984C183.984 31.0375 184.12 31.3606 184.362 31.5959L185.234 30.7ZM200.914 15.51L201.797 14.6261C201.563 14.3917 201.245 14.26 200.914 14.26V15.51ZM181.874 15.51L180.99 16.3939C181.224 16.6283 181.542 16.76 181.874 16.76V15.51ZM172.424 6.06H171.174C171.174 6.39152 171.305 6.70946 171.54 6.94388L172.424 6.06ZM172.424 2V0.749997C171.733 0.749997 171.174 1.30964 171.174 2H172.424ZM204.904 2L205.798 1.12633C205.562 0.885669 205.24 0.749997 204.904 0.749997V2ZM210.924 8.16H212.174C212.174 7.83345 212.046 7.51987 211.818 7.28633L210.924 8.16ZM210.924 20.55V21.8C211.614 21.8 212.174 21.2404 212.174 20.55H210.924ZM205.954 20.55L205.07 21.4339C205.304 21.6683 205.622 21.8 205.954 21.8V20.55ZM183.624 38.33V39.58H204.904V38.33V37.08H183.624V38.33ZM204.904 38.33L204.015 39.2088L210.035 45.2988L210.924 44.42L211.813 43.5412L205.793 37.4512L204.904 38.33ZM210.924 44.42H209.674V51H210.924H212.174V44.42H210.924ZM210.924 51V49.75H174.524V51V52.25H210.924V51ZM174.524 51L175.407 50.1161L169.317 44.0261L168.434 44.91L167.55 45.7939L173.64 51.8839L174.524 51ZM168.434 44.91H169.684V7.95H168.434H167.184V44.91H168.434ZM168.434 7.95L167.55 8.83388L180.22 21.5039L181.104 20.62L181.987 19.7361L169.317 7.06612L168.434 7.95ZM181.104 20.62H179.854V35.74H181.104H182.354V20.62H181.104ZM181.104 35.74L180.208 36.6117L182.728 39.2017L183.624 38.33L184.52 37.4583L182 34.8683L181.104 35.74ZM185.234 20.55V21.8H196.364V20.55V19.3H185.234V20.55ZM196.364 20.55L195.476 21.4301L203.666 29.6901L204.554 28.81L205.441 27.9299L197.251 19.6699L196.364 20.55ZM204.554 28.81H203.304V33.22H204.554H205.804V28.81H204.554ZM204.554 33.22V31.97H187.824V33.22V34.47H204.554V33.22ZM187.824 33.22L188.695 32.3241L186.105 29.8041L185.234 30.7L184.362 31.5959L186.952 34.1159L187.824 33.22ZM185.234 30.7H186.484V20.55H185.234H183.984V30.7H185.234ZM200.914 15.51V14.26H181.874V15.51V16.76H200.914V15.51ZM181.874 15.51L182.757 14.6261L173.307 5.17612L172.424 6.06L171.54 6.94388L180.99 16.3939L181.874 15.51ZM172.424 6.06H173.674V2H172.424H171.174V6.06H172.424ZM172.424 2V3.25H204.904V2V0.749997H172.424V2ZM204.904 2L204.01 2.87366L210.03 9.03366L210.924 8.16L211.818 7.28633L205.798 1.12633L204.904 2ZM210.924 8.16H209.674V20.55H210.924H212.174V8.16H210.924ZM210.924 20.55V19.3H205.954V20.55V21.8H210.924V20.55ZM205.954 20.55L206.837 19.6661L201.797 14.6261L200.914 15.51L200.03 16.3939L205.07 21.4339L205.954 20.55ZM246.925 28.04V26.79C246.235 26.79 245.675 27.3496 245.675 28.04H246.925ZM251.055 28.04L251.936 27.1525C251.702 26.9203 251.385 26.79 251.055 26.79V28.04ZM259.595 36.51H260.845C260.845 36.1767 260.712 35.8572 260.476 35.6225L259.595 36.51ZM259.595 51V52.25C260.286 52.25 260.845 51.6904 260.845 51H259.595ZM252.945 51L252.056 51.8788C252.291 52.1163 252.611 52.25 252.945 52.25V51ZM246.925 44.91H245.675C245.675 45.239 245.805 45.5548 246.036 45.7888L246.925 44.91ZM253.505 2L254.394 1.12118C254.16 0.883662 253.839 0.749997 253.505 0.749997V2ZM259.595 8.16H260.845C260.845 7.83095 260.716 7.51517 260.484 7.28118L259.595 8.16ZM259.595 30.63L258.712 31.5139C259.069 31.8714 259.607 31.9783 260.074 31.7848C260.541 31.5914 260.845 31.1356 260.845 30.63H259.595ZM244.405 15.44L245.289 14.5561C245.055 14.3217 244.737 14.19 244.405 14.19V15.44ZM227.185 15.44V14.19C226.68 14.19 226.224 14.4946 226.031 14.9616C225.837 15.4287 225.944 15.9664 226.302 16.3239L227.185 15.44ZM229.775 18.03H231.025C231.025 17.6985 230.894 17.3805 230.659 17.1461L229.775 18.03ZM229.775 51V52.25C230.466 52.25 231.025 51.6904 231.025 51H229.775ZM223.195 51L222.312 51.8839C222.546 52.1183 222.864 52.25 223.195 52.25V51ZM217.105 44.91H215.855C215.855 45.2415 215.987 45.5595 216.222 45.7939L217.105 44.91ZM217.105 2V0.749997C216.415 0.749997 215.855 1.30964 215.855 2H217.105ZM246.925 28.04V29.29H251.055V28.04V26.79H246.925V28.04ZM251.055 28.04L250.175 28.9275L258.715 37.3975L259.595 36.51L260.476 35.6225L251.936 27.1525L251.055 28.04ZM259.595 36.51H258.345V51H259.595H260.845V36.51H259.595ZM259.595 51V49.75H252.945V51V52.25H259.595V51ZM252.945 51L253.834 50.1212L247.814 44.0312L246.925 44.91L246.036 45.7888L252.056 51.8788L252.945 51ZM246.925 44.91H248.175V28.04H246.925H245.675V44.91H246.925ZM253.505 2L252.617 2.87881L258.707 9.03881L259.595 8.16L260.484 7.28118L254.394 1.12118L253.505 2ZM259.595 8.16H258.345V30.63H259.595H260.845V8.16H259.595ZM259.595 30.63L260.479 29.7461L245.289 14.5561L244.405 15.44L243.522 16.3239L258.712 31.5139L259.595 30.63ZM244.405 15.44V14.19H227.185V15.44V16.69H244.405V15.44ZM227.185 15.44L226.302 16.3239L228.892 18.9139L229.775 18.03L230.659 17.1461L228.069 14.5561L227.185 15.44ZM229.775 18.03H228.525V51H229.775H231.025V18.03H229.775ZM229.775 51V49.75H223.195V51V52.25H229.775V51ZM223.195 51L224.079 50.1161L217.989 44.0261L217.105 44.91L216.222 45.7939L222.312 51.8839L223.195 51ZM217.105 44.91H218.355V2H217.105H215.855V44.91H217.105ZM217.105 2V3.25H253.505V2V0.749997L217.105 0.749997V2ZM296.418 28.04V26.79C295.727 26.79 295.168 27.3496 295.168 28.04H296.418ZM300.548 28.04L301.428 27.1525C301.194 26.9203 300.877 26.79 300.548 26.79V28.04ZM309.088 36.51H310.338C310.338 36.1767 310.205 35.8572 309.968 35.6225L309.088 36.51ZM309.088 51V52.25C309.778 52.25 310.338 51.6904 310.338 51H309.088ZM302.438 51L301.549 51.8788C301.784 52.1163 302.104 52.25 302.438 52.25V51ZM296.418 44.91H295.168C295.168 45.239 295.297 45.5548 295.529 45.7888L296.418 44.91ZM302.998 2L303.887 1.12118C303.652 0.883662 303.332 0.749997 302.998 0.749997V2ZM309.088 8.16H310.338C310.338 7.83095 310.208 7.51517 309.977 7.28118L309.088 8.16ZM309.088 30.63L308.204 31.5139C308.561 31.8714 309.099 31.9783 309.566 31.7848C310.033 31.5914 310.338 31.1356 310.338 30.63H309.088ZM293.898 15.44L294.782 14.5561C294.547 14.3217 294.229 14.19 293.898 14.19V15.44ZM276.678 15.44V14.19C276.172 14.19 275.716 14.4946 275.523 14.9616C275.329 15.4287 275.436 15.9664 275.794 16.3239L276.678 15.44ZM279.268 18.03H280.518C280.518 17.6985 280.386 17.3805 280.152 17.1461L279.268 18.03ZM279.268 51V52.25C279.958 52.25 280.518 51.6904 280.518 51H279.268ZM272.688 51L271.804 51.8839C272.038 52.1183 272.356 52.25 272.688 52.25V51ZM266.598 44.91H265.348C265.348 45.2415 265.479 45.5595 265.714 45.7939L266.598 44.91ZM266.598 2V0.749997C265.907 0.749997 265.348 1.30964 265.348 2H266.598ZM296.418 28.04V29.29H300.548V28.04V26.79H296.418V28.04ZM300.548 28.04L299.667 28.9275L308.207 37.3975L309.088 36.51L309.968 35.6225L301.428 27.1525L300.548 28.04ZM309.088 36.51H307.838V51H309.088H310.338V36.51H309.088ZM309.088 51V49.75H302.438V51V52.25H309.088V51ZM302.438 51L303.327 50.1212L297.307 44.0312L296.418 44.91L295.529 45.7888L301.549 51.8788L302.438 51ZM296.418 44.91H297.668V28.04H296.418H295.168V44.91H296.418ZM302.998 2L302.109 2.87881L308.199 9.03881L309.088 8.16L309.977 7.28118L303.887 1.12118L302.998 2ZM309.088 8.16H307.838V30.63H309.088H310.338V8.16H309.088ZM309.088 30.63L309.972 29.7461L294.782 14.5561L293.898 15.44L293.014 16.3239L308.204 31.5139L309.088 30.63ZM293.898 15.44V14.19H276.678V15.44V16.69H293.898V15.44ZM276.678 15.44L275.794 16.3239L278.384 18.9139L279.268 18.03L280.152 17.1461L277.562 14.5561L276.678 15.44ZM279.268 18.03H278.018V51H279.268H280.518V18.03H279.268ZM279.268 51V49.75H272.688V51V52.25H279.268V51ZM272.688 51L273.572 50.1161L267.482 44.0261L266.598 44.91L265.714 45.7939L271.804 51.8839L272.688 51ZM266.598 44.91H267.848V2H266.598H265.348V44.91H266.598ZM266.598 2V3.25H302.998V2V0.749997L266.598 0.749997V2ZM315.748 18.73V17.48C315.058 17.48 314.498 18.0396 314.498 18.73H315.748ZM319.388 18.73L320.272 17.8461C320.038 17.6117 319.72 17.48 319.388 17.48V18.73ZM330.098 29.44H331.348C331.348 29.1085 331.216 28.7905 330.982 28.5561L330.098 29.44ZM330.098 51V52.25C330.788 52.25 331.348 51.6904 331.348 51H330.098ZM321.768 51L320.879 51.8788C321.114 52.1163 321.434 52.25 321.768 52.25V51ZM315.748 44.91H314.498C314.498 45.239 314.628 45.5548 314.859 45.7888L315.748 44.91ZM324.148 2.07L325.032 1.18611C324.798 0.951692 324.48 0.819996 324.148 0.819996V2.07ZM330.098 8.02H331.348C331.348 7.68848 331.216 7.37054 330.982 7.13612L330.098 8.02ZM330.098 23.49L329.214 24.3739C329.572 24.7314 330.109 24.8383 330.576 24.6448C331.043 24.4514 331.348 23.9956 331.348 23.49H330.098ZM315.748 9.14H314.498C314.498 9.47152 314.63 9.78946 314.864 10.0239L315.748 9.14ZM315.748 2.07V0.819996C315.058 0.819996 314.498 1.37964 314.498 2.07H315.748ZM315.748 18.73V19.98H319.388V18.73V17.48H315.748V18.73ZM319.388 18.73L318.504 19.6139L329.214 30.3239L330.098 29.44L330.982 28.5561L320.272 17.8461L319.388 18.73ZM330.098 29.44H328.848V51H330.098H331.348V29.44H330.098ZM330.098 51V49.75H321.768V51V52.25H330.098V51ZM321.768 51L322.657 50.1212L316.637 44.0312L315.748 44.91L314.859 45.7888L320.879 51.8788L321.768 51ZM315.748 44.91H316.998V18.73H315.748H314.498V44.91H315.748ZM324.148 2.07L323.264 2.95388L329.214 8.90388L330.098 8.02L330.982 7.13612L325.032 1.18611L324.148 2.07ZM330.098 8.02H328.848V23.49H330.098H331.348V8.02H330.098ZM330.098 23.49L330.982 22.6061L316.632 8.25611L315.748 9.14L314.864 10.0239L329.214 24.3739L330.098 23.49ZM315.748 9.14H316.998V2.07H315.748H314.498V9.14H315.748ZM315.748 2.07V3.32H324.148V2.07V0.819996H315.748V2.07ZM373.134 2L374.013 1.11108C373.779 0.879739 373.463 0.749997 373.134 0.749997V2ZM379.294 8.09H380.544C380.544 7.756 380.411 7.4359 380.173 7.20108L379.294 8.09ZM379.294 16.7V17.95C379.985 17.95 380.544 17.3904 380.544 16.7H379.294ZM375.094 16.7L374.21 17.5839C374.445 17.8183 374.763 17.95 375.094 17.95V16.7ZM364.874 6.48H363.624C363.624 6.81152 363.756 7.12946 363.99 7.36388L364.874 6.48ZM364.874 2V0.749997C364.184 0.749997 363.624 1.30964 363.624 2H364.874ZM364.874 16.56V15.31C364.184 15.31 363.624 15.8696 363.624 16.56H364.874ZM369.074 16.56L369.958 15.6761C369.724 15.4417 369.406 15.31 369.074 15.31V16.56ZM379.294 26.78H380.544C380.544 26.4485 380.413 26.1305 380.178 25.8961L379.294 26.78ZM379.294 51V52.25C379.985 52.25 380.544 51.6904 380.544 51H379.294ZM349.964 51L349.08 51.8839C349.315 52.1183 349.633 52.25 349.964 52.25V51ZM336.734 37.77H335.484C335.484 38.1015 335.616 38.4195 335.85 38.6539L336.734 37.77ZM336.734 2V0.749997C336.044 0.749997 335.484 1.30964 335.484 2H336.734ZM344.994 2L345.878 1.11611C345.644 0.881693 345.326 0.749997 344.994 0.749997V2ZM351.084 8.09L352.334 8.08662C352.333 7.75627 352.202 7.43971 351.968 7.20611L351.084 8.09ZM351.154 33.99L349.904 33.9934C349.905 34.3178 350.032 34.6292 350.258 34.8617L351.154 33.99ZM353.674 36.58L352.778 37.4517C353.014 37.6936 353.337 37.83 353.674 37.83V36.58ZM364.874 36.58V37.83C365.565 37.83 366.124 37.2704 366.124 36.58H364.874ZM373.134 2L372.256 2.88892L378.416 8.97892L379.294 8.09L380.173 7.20108L374.013 1.11108L373.134 2ZM379.294 8.09H378.044V16.7H379.294H380.544V8.09H379.294ZM379.294 16.7V15.45H375.094V16.7V17.95H379.294V16.7ZM375.094 16.7L375.978 15.8161L365.758 5.59611L364.874 6.48L363.99 7.36388L374.21 17.5839L375.094 16.7ZM364.874 6.48H366.124V2H364.874H363.624V6.48H364.874ZM364.874 2V3.25H373.134V2V0.749997H364.874V2ZM364.874 16.56V17.81H369.074V16.56V15.31H364.874V16.56ZM369.074 16.56L368.19 17.4439L378.41 27.6639L379.294 26.78L380.178 25.8961L369.958 15.6761L369.074 16.56ZM379.294 26.78H378.044V51H379.294H380.544V26.78H379.294ZM379.294 51V49.75H349.964V51V52.25H379.294V51ZM349.964 51L350.848 50.1161L337.618 36.8861L336.734 37.77L335.85 38.6539L349.08 51.8839L349.964 51ZM336.734 37.77H337.984V2H336.734H335.484V37.77H336.734ZM336.734 2V3.25H344.994V2V0.749997H336.734V2ZM344.994 2L344.11 2.88388L350.2 8.97388L351.084 8.09L351.968 7.20611L345.878 1.11611L344.994 2ZM351.084 8.09L349.834 8.09338L349.904 33.9934L351.154 33.99L352.404 33.9866L352.334 8.08662L351.084 8.09ZM351.154 33.99L350.258 34.8617L352.778 37.4517L353.674 36.58L354.57 35.7083L352.05 33.1183L351.154 33.99ZM353.674 36.58V37.83H364.874V36.58V35.33H353.674V36.58ZM364.874 36.58H366.124V16.56H364.874H363.624V36.58H364.874ZM416.115 39.59V38.34C415.425 38.34 414.865 38.8996 414.865 39.59H416.115ZM420.315 39.59L421.199 38.7061C420.964 38.4717 420.646 38.34 420.315 38.34V39.59ZM428.855 48.13H430.105C430.105 47.7985 429.973 47.4805 429.739 47.2461L428.855 48.13ZM428.855 51.07V52.32C429.545 52.32 430.105 51.7604 430.105 51.07H428.855ZM416.115 51.07H414.865C414.865 51.7604 415.425 52.32 416.115 52.32V51.07ZM422.695 2L423.574 1.11108C423.34 0.879739 423.024 0.749997 422.695 0.749997V2ZM428.855 8.09H430.105C430.105 7.756 429.971 7.4359 429.734 7.20108L428.855 8.09ZM428.855 38.05V39.3C429.545 39.3 430.105 38.7404 430.105 38.05H428.855ZM424.655 38.05L423.771 38.9339C424.005 39.1683 424.323 39.3 424.655 39.3V38.05ZM416.115 29.51L416.999 28.6261C416.764 28.3917 416.446 28.26 416.115 28.26V29.51ZM415.835 29.51V28.26C415.145 28.26 414.585 28.8196 414.585 29.51H415.835ZM415.835 37.35V38.6C416.525 38.6 417.085 38.0404 417.085 37.35H415.835ZM408.345 37.35L407.455 38.2279C407.69 38.466 408.01 38.6 408.345 38.6V37.35ZM403.165 32.1H401.915C401.915 32.4286 402.044 32.744 402.275 32.9779L403.165 32.1ZM403.165 30.28H404.415C404.415 29.9485 404.283 29.6305 404.049 29.3961L403.165 30.28ZM398.965 26.08L399.849 25.1961C399.491 24.8386 398.954 24.7317 398.487 24.9252C398.019 25.1186 397.715 25.5744 397.715 26.08H398.965ZM398.965 51.07V52.32C399.655 52.32 400.215 51.7604 400.215 51.07H398.965ZM392.385 51.07L391.496 51.9488C391.731 52.1863 392.051 52.32 392.385 52.32V51.07ZM386.295 44.91H385.045C385.045 45.239 385.175 45.5548 385.406 45.7888L386.295 44.91ZM386.295 2V0.749997C385.605 0.749997 385.045 1.30964 385.045 2H386.295ZM398.895 2L399.775 1.11273C399.541 0.880381 399.225 0.749997 398.895 0.749997V2ZM408.065 11.1L407.184 11.9873C407.419 12.2196 407.735 12.35 408.065 12.35V11.1ZM412.125 11.1V12.35C412.815 12.35 413.375 11.7904 413.375 11.1H412.125ZM412.125 2V0.749997C411.435 0.749997 410.875 1.30964 410.875 2H412.125ZM416.115 39.59V40.84H420.315V39.59V38.34H416.115V39.59ZM420.315 39.59L419.431 40.4739L427.971 49.0139L428.855 48.13L429.739 47.2461L421.199 38.7061L420.315 39.59ZM428.855 48.13H427.605V51.07H428.855H430.105V48.13H428.855ZM428.855 51.07V49.82H416.115V51.07V52.32H428.855V51.07ZM416.115 51.07H417.365V39.59H416.115H414.865V51.07H416.115ZM422.695 2L421.816 2.88892L427.976 8.97892L428.855 8.09L429.734 7.20108L423.574 1.11108L422.695 2ZM428.855 8.09H427.605V38.05H428.855H430.105V8.09H428.855ZM428.855 38.05V36.8H424.655V38.05V39.3H428.855V38.05ZM424.655 38.05L425.539 37.1661L416.999 28.6261L416.115 29.51L415.231 30.3939L423.771 38.9339L424.655 38.05ZM416.115 29.51V28.26H415.835V29.51V30.76H416.115V29.51ZM415.835 29.51H414.585V37.35H415.835H417.085V29.51H415.835ZM415.835 37.35V36.1H408.345V37.35V38.6H415.835V37.35ZM408.345 37.35L409.235 36.4721L404.055 31.2221L403.165 32.1L402.275 32.9779L407.455 38.2279L408.345 37.35ZM403.165 32.1H404.415V30.28H403.165H401.915V32.1H403.165ZM403.165 30.28L404.049 29.3961L399.849 25.1961L398.965 26.08L398.081 26.9639L402.281 31.1639L403.165 30.28ZM398.965 26.08H397.715V51.07H398.965H400.215V26.08H398.965ZM398.965 51.07V49.82H392.385V51.07V52.32H398.965V51.07ZM392.385 51.07L393.274 50.1912L387.184 44.0312L386.295 44.91L385.406 45.7888L391.496 51.9488L392.385 51.07ZM386.295 44.91H387.545V2H386.295H385.045V44.91H386.295ZM386.295 2V3.25H398.895V2V0.749997H386.295V2ZM398.895 2L398.014 2.88726L407.184 11.9873L408.065 11.1L408.945 10.2127L399.775 1.11273L398.895 2ZM408.065 11.1V12.35H412.125V11.1V9.85H408.065V11.1ZM412.125 11.1H413.375V2H412.125H410.875V11.1H412.125ZM412.125 2V3.25H422.695V2V0.749997L412.125 0.749997V2Z" fill="white"/>
</svg>
