<svg width="47" height="47" viewBox="0 0 47 47" fill="none" xmlns="http://www.w3.org/2000/svg">
<path d="M23.5 1.73438C35.9597 1.73438 46 11.5058 46 23.5C46 35.4942 35.9597 45.2656 23.5 45.2656C11.0403 45.2656 1 35.4942 1 23.5C1 11.5058 11.0403 1.73438 23.5 1.73438ZM33.0879 13.4307C32.4745 13.4434 31.7842 13.6127 30.5117 14.0605C29.2225 14.5143 27.2313 15.2943 23.9707 16.6055L23.9688 16.6064C21.6771 17.5325 17.1129 19.4375 10.2832 22.3184C9.68974 22.5457 9.17364 22.7937 8.78125 23.0752C8.44268 23.3181 8.02947 23.7059 7.91504 24.2715L7.89648 24.3789C7.83207 24.8669 7.97789 25.3084 8.26758 25.6543C8.52316 25.9595 8.85985 26.1539 9.14355 26.2871C9.6897 26.5435 10.4696 26.754 11.1289 26.96V26.9609C11.7433 27.1531 12.4695 27.364 13.1562 27.5303C13.82 27.691 14.5234 27.8278 15.0615 27.8398V27.8408C16.1076 27.8659 17.16 27.4519 18.1895 26.7646L18.1885 26.7637C20.0133 25.57 21.5868 24.5478 22.9062 23.6924C21.9141 24.5885 21.099 25.3206 20.9658 25.4531L20.96 25.459C20.8097 25.6108 20.6542 25.7582 20.4922 25.9102C20.3347 26.0579 20.1646 26.2161 20.0078 26.3711C19.7107 26.6648 19.3523 27.0485 19.1445 27.5078C18.904 28.0398 18.8755 28.6523 19.2031 29.2598C19.4888 29.7893 20.0014 30.2295 20.6318 30.6309C22.5692 31.8762 23.8356 32.7518 25.8721 34.0459V34.0469C26.1839 34.2454 26.4765 34.4507 26.792 34.668C27.0976 34.8785 27.424 35.0997 27.7617 35.292C28.4443 35.6806 29.2533 36.0004 30.2197 35.916H30.2207C31.5506 35.7989 32.3624 34.5978 32.7158 32.7783L32.7168 32.7773C33.4929 28.7523 35.0368 19.969 35.3926 16.3174L35.3936 16.3018L35.3955 16.2852C35.4203 15.9036 35.4003 15.5205 35.3359 15.1436H35.334C35.2655 14.6708 35.0276 14.2428 34.667 13.9355L34.6494 13.9199L34.6309 13.9062L34.5176 13.8252C34.252 13.6488 33.9729 13.5569 33.7588 13.5068C33.5069 13.448 33.2731 13.4307 33.1084 13.4307H33.0879Z" fill="white" stroke="white" stroke-width="2"/>
</svg>
